# xmcd
#
# Track frame offsets:
#	150
#	12077
#	25562
#	40872
#	48951
#	59019
#	73740
#	89448
#	96693
#	105255
#	115161
#	125790
#	136440
#	146854
#	160116
#	170596
#	188296
#	197082
#	213612
#	222964
#
# Disc length: 3094 seconds
#
# Revision: 0
# Processed by: cddbd v1.5.1PL2 Copyright (c) Steve Scherf et al.
# Submitted via: EasyCDDAExtractor 9.0.0.1
#
DISCID=270c1414
DTITLE=Red Sovine - 20 All Time Gospel Hits
DYEAR=2002
DGENRE=Country
TTITLE0=Cast Thy Bread Upon The Waters
TTITLE1=Just A Closer Walk With Thee
TTITLE2=Except The Lord
TTITLE3=He's Got A Whole
TTITLE4=The Church Around The Corner
TTITLE5=If You Should Visit Heaven
TTITLE6=The Treasure I Lost
TTITLE7=Bringing In The Sheaves
TTITLE8=Sing With All Your Heart
TTITLE9=A Beautiful Life
TTITLE10=I'm Singing Hallelujah
TTITLE11=I'm Another World Millionaire
TTITLE12=Lay Your Hands On Me
TTITLE13=No One's Too Big To Cry
TTITLE14=He's Standing By
TTITLE15=Cheyenne
TTITLE16=Oh No, No
TTITLE17=Your Robe Won't Fit
TTITLE18=There'll Come A Payday
TTITLE19=Happy Happy Goodbye
EXTD=
EXTT0=
EXTT1=
EXTT2=
EXTT3=
EXTT4=
EXTT5=
EXTT6=
EXTT7=
EXTT8=
EXTT9=
EXTT10=
EXTT11=
EXTT12=
EXTT13=
EXTT14=
EXTT15=
EXTT16=
EXTT17=
EXTT18=
EXTT19=
PLAYORDER=
